<svg id="Group_161" data-name="Group 161" xmlns="http://www.w3.org/2000/svg" width="44" height="40" viewBox="0 0 44 40">
  <rect id="Rectangle_146" data-name="Rectangle 146" width="44" height="40" rx="10" fill="#f3f3f3"/>
  <path id="Path_1877" data-name="Path 1877" d="M34.791,11.917a1.355,1.355,0,0,0-.106-.534,1.38,1.38,0,0,0-.308-.453,1.415,1.415,0,0,0-.463-.3,1.442,1.442,0,0,0-.547-.1H29.145a2.972,2.972,0,0,0-1.1-1.116,3.069,3.069,0,0,0-3.065,0,2.972,2.972,0,0,0-1.105,1.116H10.633a1.443,1.443,0,0,0-.546.1,1.416,1.416,0,0,0-.463.3,1.38,1.38,0,0,0-.308.453,1.342,1.342,0,0,0,.319,1.5,1.432,1.432,0,0,0,1,.394h12.5a1.513,1.513,0,0,1,.612.132,1.481,1.481,0,0,1,.5.367,3,3,0,0,0,1.025.751,3.073,3.073,0,0,0,2.5,0,3,3,0,0,0,1.025-.751,1.483,1.483,0,0,1,.492-.363,1.514,1.514,0,0,1,.6-.136h3.49a1.43,1.43,0,0,0,.986-.4A1.367,1.367,0,0,0,34.791,11.917ZM23.61,11.133a.235.235,0,0,1,0,.078.231.231,0,0,0,0-.1Zm0,1.48a.235.235,0,0,1,0,.078.232.232,0,0,0-.02-.1Zm2.918,1.166a1.947,1.947,0,0,1-1.071-.307,1.882,1.882,0,0,1-.714-.837,1.832,1.832,0,0,1-.116-1.084,1.86,1.86,0,0,1,.522-.963,1.93,1.93,0,0,1,.983-.516,1.957,1.957,0,0,1,1.11.107,1.906,1.906,0,0,1,.861.693,1.813,1.813,0,0,1-.252,2.349,1.939,1.939,0,0,1-1.344.538Zm2.9-1.088a.229.229,0,0,1,0-.078.231.231,0,0,0-.02.059Zm0-1.558a.229.229,0,0,0,0,.078.232.232,0,0,1-.02-.1Z" fill="#002ea6"/>
  <path id="Path_1878" data-name="Path 1878" d="M19.117,18.572a2.972,2.972,0,0,0-1.1-1.116,3.069,3.069,0,0,0-3.065,0,2.972,2.972,0,0,0-1.1,1.116H10.633a1.443,1.443,0,0,0-.546.1,1.419,1.419,0,0,0-.463.3,1.381,1.381,0,0,0-.308.453,1.377,1.377,0,0,0,0,1.065,1.38,1.38,0,0,0,.309.449,1.415,1.415,0,0,0,.462.3,1.442,1.442,0,0,0,.544.1h3.209a2.972,2.972,0,0,0,1.1,1.116,3.069,3.069,0,0,0,3.065,0,2.972,2.972,0,0,0,1.1-1.116h14.25a1.443,1.443,0,0,0,.544-.1,1.415,1.415,0,0,0,.462-.3,1.381,1.381,0,0,0,.309-.449,1.377,1.377,0,0,0,0-1.065,1.381,1.381,0,0,0-.308-.453,1.418,1.418,0,0,0-.463-.3,1.442,1.442,0,0,0-.547-.1Zm-5.535.617a.239.239,0,0,1,0,.069A.239.239,0,0,0,13.582,19.189Zm0,1.47a.229.229,0,0,1,0,.078.23.23,0,0,0-.02-.078ZM16.5,21.825a1.947,1.947,0,0,1-1.065-.316,1.882,1.882,0,0,1-.705-.842,1.833,1.833,0,0,1-.107-1.083,1.86,1.86,0,0,1,.527-.958,1.93,1.93,0,0,1,.983-.51,1.957,1.957,0,0,1,1.108.111,1.905,1.905,0,0,1,.857.694,1.835,1.835,0,0,1,.167,1.76,1.87,1.87,0,0,1-.421.606,1.92,1.92,0,0,1-.627.4,1.955,1.955,0,0,1-.737.136Zm2.878-1.088a.234.234,0,0,1,0-.078A.234.234,0,0,0,19.378,20.737Zm0-1.548a.239.239,0,0,0,0,.069A.239.239,0,0,1,19.378,19.189Z" fill="#002ea6"/>
  <path id="Path_1879" data-name="Path 1879" d="M34.791,28.028a1.365,1.365,0,0,0-.1-.539,1.39,1.39,0,0,0-.307-.458,1.424,1.424,0,0,0-.464-.307,1.452,1.452,0,0,0-.55-.108H24.632a2.972,2.972,0,0,0-1.1-1.109,3.069,3.069,0,0,0-3.056,0,2.973,2.973,0,0,0-1.1,1.109H10.633a1.452,1.452,0,0,0-.55.108,1.426,1.426,0,0,0-.464.307,1.389,1.389,0,0,0-.307.458,1.4,1.4,0,0,0,.314,1.523,1.441,1.441,0,0,0,1.007.408h8.022a1.443,1.443,0,0,1,.6.132,1.411,1.411,0,0,1,.485.368,3,3,0,0,0,1.026.755,3.071,3.071,0,0,0,2.51,0A3,3,0,0,0,24.3,29.92a1.41,1.41,0,0,1,.485-.368,1.443,1.443,0,0,1,.6-.132h8.022a1.453,1.453,0,0,0,.545-.106,1.424,1.424,0,0,0,.462-.3,1.391,1.391,0,0,0,.309-.451,1.366,1.366,0,0,0,.108-.533Zm-15.684-.774a.18.18,0,0,0,0,.069A.18.18,0,0,1,19.107,27.254Zm0,1.48a.239.239,0,0,0,0,.069.243.243,0,0,1-.02-.069ZM22.025,29.9a1.948,1.948,0,0,1-1.067-.311,1.882,1.882,0,0,1-.71-.838,1.831,1.831,0,0,1-.113-1.082,1.858,1.858,0,0,1,.522-.961,1.93,1.93,0,0,1,.98-.515,1.957,1.957,0,0,1,1.108.1,1.907,1.907,0,0,1,.861.689,1.835,1.835,0,0,1,.177,1.76,1.872,1.872,0,0,1-.418.608,1.919,1.919,0,0,1-.625.405,1.953,1.953,0,0,1-.736.14Zm2.888-1.1a.239.239,0,0,0,0-.069.239.239,0,0,1-.02.069Zm0-1.548a.184.184,0,0,1,0,.069.182.182,0,0,0-.02-.069Z" fill="#002ea6"/>
</svg>
