<svg xmlns="http://www.w3.org/2000/svg" width="19.693" height="19.854" viewBox="0 0 19.693 19.854">
  <path id="Path_1876" data-name="Path 1876" d="M19.389,11.439,14.3,4.132a8.045,8.045,0,0,0-4.173-3.087,7.656,7.656,0,0,0-8.976,3.5,8.075,8.075,0,0,0-.993,5.1l1.112,8.408a2.185,2.185,0,0,0,.323.887,2.152,2.152,0,0,0,.665.663,2.081,2.081,0,0,0,.875.309,2.025,2.025,0,0,0,.914-.106L7.28,18.651a4.5,4.5,0,0,0,2.274,1.676,4.283,4.283,0,0,0,4.951-1.777,4.5,4.5,0,0,0,.69-2.74l3.228-1.158a2.025,2.025,0,0,0,.791-.519,2.084,2.084,0,0,0,.477-.828,2.157,2.157,0,0,0,.063-.965,2.185,2.185,0,0,0-.364-.9ZM3.673,17.232,2.629,9.345a5.509,5.509,0,0,1,.68-3.48A5.224,5.224,0,0,1,9.433,3.481a5.489,5.489,0,0,1,2.846,2.106l4.769,6.845Z" transform="translate(-0.088 -0.685)" fill="#002ea6"/>
</svg>
