<svg xmlns="http://www.w3.org/2000/svg" width="16.667" height="20" viewBox="0 0 16.667 20">
  <path id="Path_1875" data-name="Path 1875" d="M14.833,7.02V5.833a5.833,5.833,0,1,0-11.667,0V7.02a4.167,4.167,0,0,0-2.5,3.813v5A4.172,4.172,0,0,0,4.833,20h8.333a4.171,4.171,0,0,0,4.167-4.167v-5a4.167,4.167,0,0,0-2.5-3.813Zm-10-1.187a4.167,4.167,0,1,1,8.333,0v.833H4.833Zm10.833,10a2.5,2.5,0,0,1-2.5,2.5H4.833a2.5,2.5,0,0,1-2.5-2.5v-5a2.5,2.5,0,0,1,2.5-2.5h8.333a2.5,2.5,0,0,1,2.5,2.5Z" transform="translate(-0.667)" fill="#000a61"/>
</svg>
