<svg xmlns="http://www.w3.org/2000/svg" width="21" height="21" viewBox="0 0 21 21">
  <path id="Path_1876" data-name="Path 1876" d="M11.359.878A.876.876,0,0,1,12.236,0,8.774,8.774,0,0,1,21,8.766a.876.876,0,0,1-1.753,0,7.019,7.019,0,0,0-7.011-7.012.876.876,0,0,1-.876-.876Zm.876,4.382a3.506,3.506,0,0,1,3.506,3.506.876.876,0,0,0,1.753,0,5.264,5.264,0,0,0-5.259-5.259.876.876,0,0,0,0,1.753Zm7.969,9.412a2.717,2.717,0,0,1,0,3.837l-.8.919C12.23,26.3-5.238,8.838,1.528,1.637L2.536.76A2.7,2.7,0,0,1,6.329.8C6.356.823,7.98,2.932,7.98,2.932a2.717,2.717,0,0,1-.006,3.753L6.959,7.961a11.2,11.2,0,0,0,6.075,6.087l1.284-1.021a2.717,2.717,0,0,1,3.752-.005S20.178,14.645,20.205,14.672ZM19,15.946s-2.1-1.614-2.124-1.641a.964.964,0,0,0-1.358,0c-.024.024-1.791,1.433-1.791,1.433a.876.876,0,0,1-.858.133,13.155,13.155,0,0,1-7.731-7.72.876.876,0,0,1,.127-.876S6.672,5.507,6.7,5.484a.964.964,0,0,0,0-1.358C6.669,4.1,5.055,2,5.055,2a.964.964,0,0,0-1.323.034l-1.008.876c-4.945,5.946,10.192,20.243,15.4,15.319l.8-.92A.982.982,0,0,0,19,15.946Z" transform="translate(0)" fill="#000a61"/>
</svg>
