<svg xmlns="http://www.w3.org/2000/svg" width="16" height="14" viewBox="0 0 16 14">
  <path id="Path_1880" data-name="Path 1880" d="M0,7.7V3.5A3.424,3.424,0,0,1,3.333,0h9.333A3.424,3.424,0,0,1,16,3.5V7.7H14V7a2.739,2.739,0,0,0-2.667-2.8H10a2.6,2.6,0,0,0-2,.967A2.6,2.6,0,0,0,6,4.2H4.667A2.739,2.739,0,0,0,2,7v.7ZM6,5.6H4.667A1.369,1.369,0,0,0,3.333,7v.7h4V7A1.369,1.369,0,0,0,6,5.6ZM12.667,7a1.369,1.369,0,0,0-1.333-1.4H10A1.369,1.369,0,0,0,8.667,7v.7h4ZM0,9.1v4.2a.684.684,0,0,0,.667.7.684.684,0,0,0,.667-.7V11.9H14.667v1.4A.667.667,0,1,0,16,13.3V9.1Z" fill="#002ea6"/>
</svg>
